<svg xmlns="http://www.w3.org/2000/svg" width="64" height="64" viewBox="0 0 64 64" shape-rendering="crispEdges"><rect width="64" height="64" fill="#f7f4ef"/><rect x="16" y="0" width="8" height="8" fill="#3a3a3a"/><rect x="24" y="0" width="8" height="8" fill="#3a3a3a"/><rect x="32" y="0" width="8" height="8" fill="#3a3a3a"/><rect x="40" y="0" width="8" height="8" fill="#3a3a3a"/><rect x="8" y="8" width="8" height="8" fill="#3a3a3a"/><rect x="16" y="8" width="8" height="8" fill="#3a3a3a"/><rect x="24" y="8" width="8" height="8" fill="#3a3a3a"/><rect x="32" y="8" width="8" height="8" fill="#3a3a3a"/><rect x="40" y="8" width="8" height="8" fill="#3a3a3a"/><rect x="48" y="8" width="8" height="8" fill="#3a3a3a"/><rect x="0" y="16" width="8" height="8" fill="#3a3a3a"/><rect x="8" y="16" width="8" height="8" fill="#3a3a3a"/><rect x="24" y="16" width="8" height="8" fill="#3a3a3a"/><rect x="32" y="16" width="8" height="8" fill="#3a3a3a"/><rect x="48" y="16" width="8" height="8" fill="#3a3a3a"/><rect x="56" y="16" width="8" height="8" fill="#3a3a3a"/><rect x="0" y="24" width="8" height="8" fill="#3a3a3a"/><rect x="8" y="24" width="8" height="8" fill="#3a3a3a"/><rect x="16" y="24" width="8" height="8" fill="#3a3a3a"/><rect x="24" y="24" width="8" height="8" fill="#3a3a3a"/><rect x="32" y="24" width="8" height="8" fill="#3a3a3a"/><rect x="40" y="24" width="8" height="8" fill="#3a3a3a"/><rect x="48" y="24" width="8" height="8" fill="#3a3a3a"/><rect x="56" y="24" width="8" height="8" fill="#3a3a3a"/><rect x="0" y="32" width="8" height="8" fill="#3a3a3a"/><rect x="8" y="32" width="8" height="8" fill="#b5aea4"/><rect x="16" y="32" width="8" height="8" fill="#3a3a3a"/><rect x="24" y="32" width="8" height="8" fill="#3a3a3a"/><rect x="32" y="32" width="8" height="8" fill="#3a3a3a"/><rect x="40" y="32" width="8" height="8" fill="#3a3a3a"/><rect x="48" y="32" width="8" height="8" fill="#b5aea4"/><rect x="56" y="32" width="8" height="8" fill="#3a3a3a"/><rect x="0" y="40" width="8" height="8" fill="#3a3a3a"/><rect x="8" y="40" width="8" height="8" fill="#3a3a3a"/><rect x="16" y="40" width="8" height="8" fill="#3a3a3a"/><rect x="24" y="40" width="8" height="8" fill="#b5aea4"/><rect x="32" y="40" width="8" height="8" fill="#b5aea4"/><rect x="40" y="40" width="8" height="8" fill="#3a3a3a"/><rect x="48" y="40" width="8" height="8" fill="#3a3a3a"/><rect x="56" y="40" width="8" height="8" fill="#3a3a3a"/><rect x="8" y="48" width="8" height="8" fill="#3a3a3a"/><rect x="16" y="48" width="8" height="8" fill="#3a3a3a"/><rect x="24" y="48" width="8" height="8" fill="#3a3a3a"/><rect x="32" y="48" width="8" height="8" fill="#3a3a3a"/><rect x="40" y="48" width="8" height="8" fill="#3a3a3a"/><rect x="48" y="48" width="8" height="8" fill="#3a3a3a"/><rect x="16" y="56" width="8" height="8" fill="#3a3a3a"/><rect x="24" y="56" width="8" height="8" fill="#3a3a3a"/><rect x="32" y="56" width="8" height="8" fill="#3a3a3a"/><rect x="40" y="56" width="8" height="8" fill="#3a3a3a"/></svg>