<svg width="1033" height="698" viewBox="0 0 1033 698" fill="none" xmlns="http://www.w3.org/2000/svg">
<path d="M684.5 0.5H684.75H703.25H703.5V1.5H703.75H707.25H707.5V2.5H707.75H710.25H710.5V3.5H710.75H713.25H713.5V4.5C713.75 4.5 714.333 4.5 715.25 4.5H715.5V5.5H717.5V6.5H718.5V7.5H720.5V8.5H721.5V9.5H723.5V10.5H724.5V11.5H725.5V12.5H726.5V13.5H727.5V15.5H728.5V16.5H729.5V17.5H730.5V18.5H731.5V20.5H732.5V22.5H733.5V24.5H734.5V26.5H735.5V28.5H736.5V28.75V31.25V31.5H737.5V31.75V34.25V34.5H738.5V34.75V39.25V39.5H739.5V39.75V49.25V49.5H740.5V49.75V61.25V61.5H739.5V61.75V71.25V71.5H738.5V71.75V78.25V78.5H737.5V78.75V83.25V83.5H736.5V83.75V88.25V88.5H735.5V88.75V92.25V92.5H734.5V92.75V96.25V96.5H733.5V96.75V100.25V100.5H732.5V100.75V103.25V103.5H731.5V103.75V107.25V107.5H730.5V107.75V111.25V111.5H729.5V111.75V114.25V114.5H728.5V114.75V117.25V117.5H727.5V117.75V120.25V120.5H726.5V120.75V123.25V123.5H725.5V123.75V126.25V126.5H724.5V126.75V129.25V129.5H723.5V131.5H722.5V131.75V134.25V134.5H721.5V136.5H720.5V136.75V139.25V139.5H719.5V141.5H718.5V141.75V144.25V144.5H717.5V146.5H716.5V146.75V149.25V149.5H715.5V151.5H714.5V153.5H713.5V155.5H712.5V155.75V158.25V158.5H711.5V160.5H710.5V162.5H709.5V164.5H708.5V166.5H707.5V168.5H706.5V170.5H705.5V172.5H704.5V174.5H703.5V176.5H702.5V178.5H701.5V178.75V181.25V181.5H700.5V182.5H699.5V184.5H698.5V186.5H697.5V188.5H696.5V190.5H695.5C695.5 190.75 695.5 191.333 695.5 192.25V192.5H694.5V194.5H693.5V195.5H692.5V197.5H691.5V199.5H690.5C690.5 199.75 690.5 200.333 690.5 201.25V201.5H689.5V203.5H688.5V204.5H687.5V206.5H686.5C686.5 206.75 686.5 207.333 686.5 208.25V208.5H685.5V210.5H684.5V211.5H683.5C683.5 211.75 683.5 212.333 683.5 213.25V213.5H682.5V215.5H681.5V216.5H680.5C680.5 216.75 680.5 217.333 680.5 218.25V218.5H679.5V220.5H678.5V221.5H677.5V223.5H676.5V224.5H675.5V226.5H674.5V227.5H673.5C673.5 227.75 673.5 228.333 673.5 229.25V229.5H672.5V231.5H671.5V232.5H670.5V234.5H669.5V235.5H668.5V237.5H667.5V238.5H666.5V240.5H665.5V241.5H664.5V242.5H663.5V244.5H662.5V245.5H661.5V247.5H660.5V248.5H659.5V249.5H658.5V251.5H657.5V252.5H656.5V254.5H655.5V255.5H654.5V256.5H653.5V258.5H652.5V259.5H651.5V260.5H650.5V262.5H649.5V263.5H648.5V264.5H647.5V265.5H646.5V267.5H645.5V268.5H644.5V269.5H643.5V270.5H642.5V272.5H641.5V273.5H640.5V274.5H639.5V275.5H638.5V276.5H637.5V278.5H636.5V279.5H635.5V280.5H634.5V281.5H633.5V282.5H632.5V283.5H631.5V284.5H630.5V286.5H629.5V287.5H628.5V288.5H627.5V289.5H626.5V290.5H625.5V291.5H624.5V292.5H623.5V293.5H622.5V294.5H621.5V295.5H620.5V296.5H619.5V297.5H618.5V298.5H617.5V299.5H616.5V300.5H614.5V301.5H613.5V302.5H612.5V303.5H611.5V304.5H610.5V305.5H609.5V306.5H607.5V307.5H606.5V308.5H604.5V309.5H603.5V310.5H602.5V311.5H600.5V312.5H599.5V313.5H597.5V314.5H596.5V315.5H594.5V316.5H593.5V317.5H591.5V318.5H590.5V319.5H589.5V321.5H588.5C588.5 321.75 588.5 322.333 588.5 323.25V323.5H587.5V325.5H586.5V325.75V329.25V329.5H585.5V329.75V342.25V342.5H584.5V342.75V373.25V373.5H583.5V373.75V408.25V408.5H584.5V409.5H585.5V410.5H586.5V409.5H588.5V408.5H589.5V407.5H590.5V406.5H591.5V405.5H592.5V403.5H593.5V402.5H594.5V401.5H595.5V400.5H596.5V399.5H597.5V397.5H598.5V396.5H599.5V395.5H600.5V394.5H601.5V393.5H602.5V392.5H603.5V390.5H604.5V389.5H605.5V388.5H606.5V387.5H607.5V386.5H608.5V385.5H609.5V384.5H610.5V382.5H611.5V381.5H612.5V380.5H613.5V379.5H614.5V378.5H615.5V377.5H616.5V376.5H617.5V375.5H618.5V374.5H619.5V373.5H620.5V372.5H621.5V371.5H622.5V370.5H623.5V369.5H625.5V368.5H626.5V367.5H627.5V366.5H628.5V365.5H629.5V364.5H630.5V363.5H632.5V362.5H633.5V361.5H634.5V360.5H636.5V359.5H637.5V358.5H638.5V357.5C638.75 357.5 639.333 357.5 640.25 357.5H640.5V356.5H642.5V355.5H643.5V354.5H645.5V353.5H647.5V352.5H649.5V351.5H651.5V350.5H651.75H654.25H654.5V349.5H654.75H657.25H657.5V348.5H657.75H673.25H673.5V349.5H673.75H677.25H677.5V350.5H679.5V351.5C679.75 351.5 680.333 351.5 681.25 351.5H681.5V352.5H683.5V353.5H684.5V354.5H685.5V355.5H686.5V356.5H687.5V357.5H688.5V358.5H689.5V359.5H690.5V361.5H691.5V363.5H692.5V365.5H693.5V367.5H694.5V367.75V370.25V370.5H695.5V370.75V375.25V375.5H696.5V375.75V383.25V383.5H697.5V383.75V397.25V397.5H696.5V397.75V409.25V409.5H695.5V409.75V418.25V418.5H694.5V418.75V427.25V427.5H693.5V427.75V435.25V435.5H692.5V435.75V445.25V445.5H691.5V445.75V476.25V476.5H692.5V476.75V484.25V484.5H693.5V484.75V489.25V489.5H694.5V489.75V493.25V493.5H695.5C695.5 493.75 695.5 494.333 695.5 495.25V495.5H696.5V497.5H697.5V498.5H699.5V499.5H700.5V498.5H700.75H703.25H703.5V497.5H704.5V496.5H705.5V495.5H706.5V494.5H707.5V492.5H708.5V491.5H709.5C709.5 491.25 709.5 490.667 709.5 489.75V489.5H710.5V487.5H711.5V486.5H712.5V484.5H713.5V482.5H714.5V480.5H715.5V478.5H716.5V476.5H717.5V474.5H718.5V472.5H719.5V470.5H720.5V468.5H721.5V466.5H722.5V464.5H723.5V462.5H724.5V462.25V459.75V459.5H725.5V457.5H726.5V455.5H727.5V453.5H728.5V453.25V450.75V450.5H729.5V448.5H730.5V446.5H731.5V444.5H732.5V444.25V441.75V441.5H733.5V439.5H734.5V439.25V436.75V436.5H735.5V436.25V433.75V433.5H736.5V433.25V430.75V430.5H737.5V430.25V425.75V425.5H738.5V425.25V422.75V422.5H737.5V422.25V411.75V411.5H738.5V411.25V400.75V400.5H739.5V400.25V394.75V394.5H740.5V394.25V389.75V389.5H741.5V389.25V385.75V385.5H742.5V385.25V382.75V382.5H743.5V382.25V378.75V378.5H744.5V378.25V375.75V375.5H745.5V375.25V372.75V372.5H746.5V370.5H747.5V370.25V367.75V367.5H748.5V365.5H749.5V363.5H750.5V361.5H751.5V359.5H752.5V357.5H753.5C753.5 357.25 753.5 356.667 753.5 355.75V355.5H754.5V353.5H755.5V352.5H756.5C756.5 352.25 756.5 351.667 756.5 350.75V350.5H757.5V348.5H758.5V347.5H759.5V345.5H760.5V344.5H761.5V342.5H762.5V341.5H763.5V339.5H764.5V338.5H765.5V337.5H766.5V335.5H767.5V334.5H768.5V333.5H769.5V332.5H770.5V330.5H771.5V329.5H772.5V328.5H773.5V327.5H774.5V326.5H775.5V325.5H776.5V324.5H777.5V323.5H778.5V322.5H779.5V321.5H780.5V320.5H781.5V319.5H782.5V318.5H784.5V317.5H785.5V316.5H786.5V315.5H788.5V314.5H789.5V313.5H791.5V312.5H792.5V311.5H794.5V310.5H796.5V309.5H798.5V308.5H800.5V307.5H802.5V306.5H804.5V305.5H804.75H807.25H807.5V304.5H807.75H811.25H811.5V303.5H811.75H816.25H816.5V302.5H816.75H833.25H833.5V303.5H833.75H838.25H838.5V304.5H838.75H841.25H841.5V305.5H841.75H844.25H844.5V306.5H844.75H847.25H847.5V307.5C847.75 307.5 848.333 307.5 849.25 307.5H849.5V308.5H851.5V309.5H852.5V310.5H854.5V311.5H855.5V312.5H857.5V313.5H858.5V314.5H859.5V315.5H861.5V316.5H861.75H868.25H868.5V315.5H869.5V314.5H871.5V313.5H872.5V312.5H873.5V311.5H875.5V310.5H876.5V309.5H878.5V308.5H880.5V307.5H880.75H883.25H883.5V306.5H883.75H898.25H898.5V307.5H898.75H901.25H901.5V308.5C901.75 308.5 902.333 308.5 903.25 308.5H903.5V309.5H905.5V310.5H906.5V311.5H907.5V312.5H909.5V313.5H910.5V315.5H911.5V316.5H912.5V318.5H913.5V320.5H914.5V320.75V323.25V323.5H915.5V323.75V337.25V337.5H914.5V337.75V341.25V341.5H913.5V341.75V344.25V344.5H912.5V344.75V347.25V347.5H911.5V347.75V350.25V350.5H910.5V350.75V353.25V353.5H909.5V355.5H908.5V357.5H907.5V359.5H906.5V359.75V362.25V362.5H905.5V364.5H904.5V366.5H903.5V368.5H902.5V370.5H901.5V372.5H900.5V374.5H899.5V376.5H898.5V378.5H897.5V380.5H896.5V382.5H895.5V384.5H894.5V386.5H893.5V386.75V389.25V389.5H892.5V391.5H891.5V393.5H890.5V395.5H889.5V397.5H888.5V397.75V400.25V400.5H887.5V402.5H886.5V402.75V405.25V405.5H885.5V405.75V408.25V408.5H884.5V410.5H883.5V410.75V413.25V413.5H882.5V413.75V416.25V416.5H881.5V416.75V420.25V420.5H880.5V420.75V423.25V423.5H879.5V423.75V427.25V427.5H878.5V427.75V432.25V432.5H877.5V432.75V437.25V437.5H876.5V437.75V452.25V452.5H877.5V454.5H878.5V455.5H879.5V456.5H879.75H886.25H886.5V455.5H886.75H889.25H889.5V454.5C889.75 454.5 890.333 454.5 891.25 454.5H891.5V453.5H893.5V452.5H894.5V451.5H896.5V450.5H897.5V449.5H899.5V448.5H900.5V447.5H902.5V446.5H903.5V445.5H905.5V444.5H906.5V443.5H907.5V442.5H909.5V441.5H910.5V440.5H911.5V439.5H912.5V438.5H914.5V437.5H915.5V436.5H916.5V435.5H917.5V434.5H919.5V433.5H920.5V432.5H921.5V431.5H922.5V430.5H923.5V429.5H924.5V428.5H926.5V427.5H927.5V426.5H928.5V425.5H929.5V424.5H930.5V423.5H931.5V422.5H932.5V421.5H933.5V420.5H935.5V419.5H936.5V418.5H937.5V417.5H938.5V416.5H939.5V415.5H940.5V414.5H941.5V413.5H942.5V412.5H943.5V411.5H944.5V410.5H945.5V409.5H946.5V408.5H947.5V407.5H948.5V406.5H949.5V405.5H950.5V404.5H951.5V403.5H952.5V402.5H953.5V401.5H955.5V400.5H956.5V399.5H957.5V398.5H958.5V397.5H959.5V396.5H960.5V395.5H961.5V394.5H962.5V393.5H963.5V392.5H964.5V391.5H965.5V390.5H966.5V389.5H967.5V388.5H968.5V387.5H969.5V386.5H970.5V385.5H971.5V384.5H972.5V383.5H973.5V382.5H974.5V381.5H975.5V380.5H976.5V379.5H977.5V378.5H978.5V377.5H979.5V376.5H980.5V375.5H981.5V374.5H982.5V373.5H983.5V372.5H984.5V371.5H985.5V370.5H986.5V369.5H987.5V368.5H989.5V367.5H990.5V366.5H991.5V365.5H992.5V364.5H993.5V363.5H994.5V362.5H995.5V361.5H996.5V360.5H997.5V359.5H998.5V358.5H999.5V357.5H1000.5V356.5H1001.5V355.5H1002.5V354.5H1003.5V353.5H1004.5V352.5H1005.5V351.5H1006.5V350.5H1007.5V349.5H1008.5V348.5H1009.5V347.5H1010.5V346.5H1011.5V345.5H1012.5V344.5H1013.5V343.5H1014.5V342.5H1015.5V341.5H1017.5V340.5H1018.5V339.5H1019.5V338.5H1020.5V337.5H1021.5V336.5H1023.5V335.5H1024.5V334.5H1026.5V333.5H1026.75H1031.25H1031.5V334.5H1032.5V334.75V341.25V341.5H1031.5V343.5H1030.5V345.5H1029.5V347.5H1028.5V349.5H1027.5C1027.5 349.75 1027.5 350.333 1027.5 351.25V351.5H1026.5V353.5H1025.5V354.5H1024.5V355.5H1023.5V357.5H1022.5V358.5H1021.5V359.5H1020.5V361.5H1019.5V362.5H1018.5V363.5H1017.5V365.5H1016.5V366.5H1015.5V367.5H1014.5V368.5H1013.5V369.5H1012.5V371.5H1011.5V372.5H1010.5V373.5H1009.5V374.5H1008.5V375.5H1007.5V377.5H1006.5V378.5H1005.5V379.5H1004.5V380.5H1003.5V381.5H1002.5V382.5H1001.5V383.5H1000.5V384.5H999.5V386.5H998.5V387.5H997.5V388.5H996.5V389.5H995.5V390.5H994.5V392.5H993.5V393.5H992.5V394.5H991.5V395.5H990.5V396.5H989.5V397.5H988.5V399.5H987.5V400.5H986.5V401.5H985.5V402.5H984.5V403.5H983.5V404.5H982.5V406.5H981.5V407.5H980.5V408.5H979.5V409.5H978.5V410.5H977.5V411.5H976.5V412.5H975.5V414.5H974.5V415.5H973.5V416.5H972.5V417.5H971.5V418.5H970.5V419.5H969.5V420.5H968.5V421.5H967.5V422.5H966.5V423.5H965.5V425.5H964.5V426.5H963.5V427.5H962.5V428.5H961.5V429.5H960.5V430.5H959.5V431.5H958.5V432.5H957.5V433.5H956.5V434.5H955.5V435.5H954.5V436.5H953.5V437.5H952.5V438.5H951.5V439.5H950.5V440.5H949.5V441.5H948.5V442.5H947.5V443.5H946.5V444.5H945.5V445.5H944.5V446.5H943.5V447.5H942.5V448.5H941.5V449.5H940.5V450.5H939.5V451.5H938.5V452.5H937.5V453.5H935.5V454.5H934.5V455.5H933.5V456.5H932.5V457.5H931.5V458.5H930.5V459.5H929.5V460.5H928.5V461.5H927.5V462.5H925.5V463.5H924.5V464.5H923.5V465.5H922.5V466.5H921.5V467.5H919.5V468.5H918.5V469.5H917.5V470.5H916.5V471.5H914.5V472.5H913.5V473.5H912.5V474.5H910.5V475.5H909.5V476.5H908.5V477.5H906.5V478.5H905.5V479.5H903.5V480.5H902.5V481.5H901.5V482.5C901.25 482.5 900.667 482.5 899.75 482.5H899.5V483.5H897.5V484.5H896.5V485.5H894.5V486.5H892.5V487.5H890.5V488.5H888.5V489.5H886.5V490.5H886.25H883.75H883.5V491.5H883.25H880.75H880.5V492.5H880.25H876.75H876.5V493.5H876.25H857.75H857.5V492.5H857.25H853.75H853.5V491.5H853.25H850.75H850.5V490.5C850.25 490.5 849.667 490.5 848.75 490.5H848.5V489.5H846.5V488.5H845.5V487.5H843.5V486.5H842.5V485.5H841.5V484.5H840.5V483.5H839.5V482.5H838.5V481.5H837.5V479.5H836.5V478.5H835.5V476.5H834.5V474.5H833.5V472.5H832.5V470.5H831.5V470.25V467.75V467.5H830.5V467.25V462.75V462.5H829.5V462.25V454.75V454.5H828.5V454.25V440.75V440.5H829.5V440.25V430.75V430.5H829.25H825.75H825.5V431.5H824.5V432.5H823.5V433.5H822.5V434.5H820.5V435.5H819.5V436.5H818.5V437.5H817.5V438.5H816.5V439.5H814.5V440.5H813.5V441.5H812.5V442.5H811.5V443.5H810.5V444.5H808.5V445.5H807.5V446.5H806.5V447.5H805.5V448.5H803.5V449.5H802.5V450.5H801.5V451.5C801.25 451.5 800.667 451.5 799.75 451.5H799.5V452.5H797.5V453.5H796.5V454.5H794.5V455.5H792.5V456.5H790.5V457.5H790.25H787.75H787.5V458.5H787.25H784.75H784.5V459.5H784.25H780.75H780.5V460.5H780.25H765.75H765.5V459.5H765.25H761.75H761.5V458.5H761.25H758.75H758.5V457.5H756.5V456.5H754.5V455.5H754.25H749.75H749.5V456.5H748.5V458.5H747.5V460.5H746.5V460.75V463.25V463.5H745.5V465.5H744.5V465.75V468.25V468.5H743.5V470.5H742.5V470.75V473.25V473.5H741.5V473.75V476.25V476.5H740.5V478.5H739.5V478.75V481.25V481.5H738.5V481.75V484.25V484.5H737.5V486.5H736.5V486.75V489.25V489.5H735.5V491.5H734.5V491.75V494.25V494.5H733.5V496.5H732.5V496.75V499.25V499.5H731.5V501.5H730.5V501.75V504.25V504.5H729.5V506.5H728.5V508.5H727.5V510.5H726.5V510.75V513.25V513.5H725.5C725.5 513.75 725.5 514.333 725.5 515.25V515.5H724.5V517.5H723.5V518.5H722.5C722.5 518.75 722.5 519.333 722.5 520.25V520.5H721.5V522.5H720.5V523.5H719.5V525.5H718.5V526.5H717.5V528.5H716.5V529.5H715.5V530.5H714.5V531.5H713.5V532.5H712.5V533.5H711.5V534.5H710.5V535.5H709.5V536.5H708.5V537.5H707.5V538.5H706.5V539.5H704.5V540.5H702.5V541.5H700.5V542.5H700.25H697.75H697.5V543.5H697.25H693.75H693.5V544.5H693.25H682.75H682.5V543.5H682.25H677.75H677.5V542.5H677.25H674.75H674.5V541.5H672.5V540.5H670.5V539.5C670.25 539.5 669.667 539.5 668.75 539.5H668.5V538.5H666.5V537.5H665.5V536.5H664.5V535.5H663.5V534.5H661.5V533.5H660.5V531.5H659.5V530.5H658.5V529.5H657.5V528.5H656.5V526.5H655.5V525.5H654.5V523.5H653.5V522.5H652.5V520.5H651.5V518.5H650.5V518.25V515.75V515.5H649.5V513.5H648.5V513.25V510.75V510.5H647.5V510.25V507.75V507.5H646.5V507.25V503.75V503.5H645.5V503.25V498.75V498.5H644.5V498.25V492.75V492.5H643.5V492.25V482.75V482.5H642.5V482.25V457.75V457.5H643.5V457.25V444.75V444.5H644.5V444.25V435.75V435.5H645.5V435.25V426.75V426.5H646.5V426.25V417.75V417.5H647.5V417.25V406.75V406.5H648.5V406.25V389.75V389.5H647.5V389.25V386.75V386.5H646.5V385.5H646.25H642.75H642.5V386.5H640.5V387.5H639.5V388.5H637.5V389.5H636.5V390.5H634.5V391.5H633.5V392.5H632.5V393.5H631.5V394.5H629.5V395.5H628.5V396.5H627.5V397.5H626.5V398.5H625.5V399.5H624.5V400.5H623.5V401.5H622.5V402.5H621.5V403.5H620.5V404.5H619.5V406.5H618.5V407.5H617.5V408.5H616.5V409.5H615.5V410.5H614.5V412.5H613.5V413.5H612.5V414.5H611.5V416.5H610.5V417.5H609.5V418.5H608.5V420.5H607.5V421.5H606.5V423.5H605.5V424.5H604.5V426.5H603.5V427.5H602.5V428.5H601.5V430.5H600.5V431.5H599.5C599.5 431.75 599.5 432.333 599.5 433.25V433.5H598.5V435.5H597.5V436.5H596.5C596.5 436.75 596.5 437.333 596.5 438.25V438.5H595.5V440.5H594.5V441.5H593.5V443.5H592.5V445.5H591.5V447.5H590.5V449.5H589.5V451.5H588.5V451.75V454.25V454.5H587.5V454.75V457.25V457.5H586.5V457.75V461.25V461.5H585.5V461.75V467.25V467.5H584.5V467.75V486.25V486.5H583.5V486.75V555.25V555.5H584.5V555.75V566.25V566.5H585.5V566.75V575.25V575.5H586.5V575.75V583.25V583.5H587.5V583.75V593.25V593.5H588.5V593.75V616.25V616.5H589.5V616.75V622.25V622.5H588.5V622.75V630.25V630.5H589.5V630.75V668.25V668.5H588.5V668.75V674.25V674.5H587.5V674.75V678.25V678.5H586.5V678.75V681.25V681.5H585.5C585.5 681.75 585.5 682.333 585.5 683.25V683.5H584.5V685.5H583.5V686.5H582.5V688.5H581.5V689.5H580.5V690.5H579.5V691.5H578.5V692.5H577.5V693.5H576.5V694.5H574.5V695.5H572.5V696.5H570.5V697.5H570.25H556.75H556.5V696.5H556.25H553.75H553.5V695.5H551.5V694.5H550.5V693.5H548.5V692.5H547.5V691.5H546.5V690.5H545.5V688.5H544.5V687.5H543.5V685.5H542.5V684.5H541.5V682.5H540.5V680.5H539.5V680.25V677.75V677.5H538.5V677.25V674.75V674.5H537.5V674.25V671.75V671.5H536.5V671.25V666.75V666.5H535.5V666.25V660.75V660.5H534.5V660.25V652.75V652.5H533.5V652.25V642.75V642.5H532.5V642.25V626.75V626.5H531.5V626.25V612.75V612.5H530.5V612.25V599.75V599.5H529.5V599.25V586.75V586.5H528.5V586.25V566.75V566.5H527.5V566.25V545.75V545.5H526.5V545.25V449.75V449.5H525.5V449.25V441.75V441.5H524.5V440.5H522.5V441.5H521.5V442.5H520.5V443.5H519.5V445.5H518.5V446.5H517.5V447.5H516.5V448.5H515.5V450.5H514.5V451.5H513.5V452.5H512.5V453.5H511.5V455.5H510.5V456.5H509.5V457.5H508.5V459.5H507.5V460.5H506.5V461.5H505.5V462.5H504.5V464.5H503.5V465.5H502.5V466.5H501.5V467.5H500.5V469.5H499.5V470.5H498.5V471.5H497.5V472.5H496.5V474.5H495.5V475.5H494.5V476.5H493.5V477.5H492.5V478.5H491.5V480.5H490.5V481.5H489.5V482.5H488.5V483.5H487.5V484.5H486.5V486.5H485.5V487.5H484.5V488.5H483.5V489.5H482.5V490.5H481.5V491.5H480.5V492.5H479.5V493.5H478.5V494.5H477.5V495.5H476.5V497.5H475.5V498.5H474.5V499.5H473.5V500.5H471.5V501.5H470.5V502.5H469.5V503.5H468.5V504.5H467.5V505.5H466.5V506.5H465.5V507.5H464.5V508.5H463.5V509.5H461.5V510.5H460.5V511.5H459.5V512.5H458.5V513.5H456.5V514.5H455.5V515.5H453.5V516.5H452.5V517.5C452.25 517.5 451.667 517.5 450.75 517.5H450.5V518.5H448.5V519.5H447.5V520.5H445.5V521.5H445.25H442.75H442.5V522.5H440.5V523.5H440.25H437.75H437.5V524.5H437.25H433.75H433.5V525.5H433.25H428.75H428.5V526.5H428.25H410.75H410.5V525.5H410.25H405.75H405.5V524.5H405.25H401.75H401.5V523.5H401.25H398.75H398.5V522.5C398.25 522.5 397.667 522.5 396.75 522.5H396.5V521.5H394.5V520.5H394.25H391.75H391.5V519.5H390.5V518.5C390.25 518.5 389.667 518.5 388.75 518.5H388.5V517.5H386.5V516.5H385.5V515.5H384.5V514.5H382.5V513.5H381.5V512.5H380.5V511.5H378.5V510.5H377.5V509.5H376.5V508.5H375.5V507.5H374.5V505.5H373.5V504.5H372.5V503.5H371.5V502.5H370.5V500.5H369.5V499.5H368.5V498.5H367.5V496.5H366.5V495.5H365.5V493.5H364.5V491.5H363.5V489.5H362.5V487.5H361.5V485.5H360.5V483.5H359.5V483.25V480.75V480.5H358.5V480.25V477.75V477.5H357.5V477.25V474.75V474.5H356.5V474.25V471.75V471.5H355.5V469.5H353.5V470.5H352.5V471.5H351.5C351.5 471.75 351.5 472.333 351.5 473.25V473.5H350.5V475.5H349.5V476.5H348.5V478.5H347.5V479.5H346.5V481.5H345.5V482.5H344.5V484.5H343.5V485.5H342.5V486.5H341.5V488.5H340.5V489.5H339.5V490.5H338.5V492.5H337.5V493.5H336.5V494.5H335.5V495.5H334.5V496.5H333.5V497.5H332.5V498.5H331.5V499.5H330.5V500.5H329.5V501.5H327.5V502.5H326.5V503.5H325.5V504.5H323.5V505.5H322.5V506.5H320.5V507.5H318.5V508.5H316.5V509.5H316.25H313.75H313.5V510.5H313.25H309.75H309.5V511.5H309.25H292.75H292.5V510.5H292.25H288.75H288.5V509.5H288.25H285.75H285.5V508.5H283.5V507.5C283.25 507.5 282.667 507.5 281.75 507.5H281.5V506.5H279.5V505.5H278.5V504.5H276.5V503.5H275.5V502.5H274.5V501.5H272.5V500.5H271.5V499.5H270.5V498.5H269.5V496.5H268.5V495.5H267.5V494.5H266.5V492.5H265.5V491.5H264.5V489.5H263.5V487.5H262.5V485.5H261.5V483.5H260.5V483.25V480.75V480.5H259.5V480.25V477.75V477.5H258.5V477.25V473.75V473.5H257.5V473.25V468.75V468.5H256.5V468.25V460.75V460.5H255.5V460.25V432.75V432.5H254.5V431.5H253.5V430.5H251.5V429.5H251.25H247.75H247.5V428.5H247.25H241.75H241.5V427.5H241.25H215.75H215.5V428.5H215.25H212.75H212.5V429.5H210.5V430.5H209.5V431.5H207.5V432.5H206.5V434.5H205.5V435.5H204.5C204.5 435.75 204.5 436.333 204.5 437.25V437.5H203.5V439.5H202.5V439.75V442.25V442.5H201.5V442.75V445.25V445.5H200.5V445.75V448.25V448.5H199.5V448.75V452.25V452.5H198.5V452.75V456.25V456.5H197.5V456.75V460.25V460.5H196.5V460.75V465.25V465.5H195.5V465.75V469.25V469.5H194.5V469.75V473.25V473.5H193.5V473.75V477.25V477.5H192.5V477.75V481.25V481.5H191.5V481.75V485.25V485.5H190.5V485.75V488.25V488.5H189.5V488.75V492.25V492.5H188.5V492.75V495.25V495.5H187.5V495.75V499.25V499.5H186.5V499.75V502.25V502.5H185.5V502.75V506.25V506.5H184.5V506.75V509.25V509.5H183.5V509.75V512.25V512.5H182.5V512.75V515.25V515.5H181.5V515.75V518.25V518.5H180.5V518.75V521.25V521.5H179.5V521.75V524.25V524.5H178.5V524.75V527.25V527.5H177.5V529.5H176.5V529.75V532.25V532.5H175.5V532.75V535.25V535.5H174.5V535.75V538.25V538.5H173.5V540.5H172.5V540.75V543.25V543.5H171.5V545.5H170.5V545.75V548.25V548.5H169.5V548.75V551.25V551.5H168.5V553.5H167.5V555.5H166.5V557.5H165.5V557.75V560.25V560.5H164.5V562.5H163.5V564.5H162.5V564.75V567.25V567.5H161.5V569.5H160.5V571.5H159.5V573.5H158.5V575.5H157.5V575.75V578.25V578.5H156.5V580.5H155.5V582.5H154.5V584.5H153.5V586.5H152.5C152.5 586.75 152.5 587.333 152.5 588.25V588.5H151.5V590.5H150.5V591.5H149.5V593.5H148.5V595.5H147.5C147.5 595.75 147.5 596.333 147.5 597.25V597.5H146.5V599.5H145.5V600.5H144.5V602.5H143.5V603.5H142.5V605.5H141.5V606.5H140.5V608.5H139.5V609.5H138.5V611.5H137.5V612.5H136.5V613.5H135.5V615.5H134.5V616.5H133.5V617.5H132.5V618.5H131.5V619.5H130.5V621.5H129.5V622.5H128.5V623.5H127.5V624.5H126.5V625.5H125.5V626.5H124.5V627.5H123.5V628.5H122.5V629.5H121.5V630.5H120.5V631.5H118.5V632.5H117.5V633.5H116.5V634.5H115.5V635.5H113.5V636.5H112.5V637.5H111.5V638.5H109.5V639.5H108.5V640.5H106.5V641.5H104.5V642.5H102.5V643.5H100.5V644.5H98.5V645.5H96.5V646.5H96.25H93.75H93.5V647.5H91.5V648.5H91.25H88.75H88.5V649.5H88.25H84.75H84.5V650.5H84.25H79.75H79.5V651.5H79.25H69.75H69.5V652.5H69.25H62.75H62.5V651.5H62.25H55.75H55.5V650.5H55.25H51.75H51.5V649.5H51.25H48.75H48.5V648.5H48.25H45.75H45.5V647.5H43.5V646.5H41.5V645.5C41.25 645.5 40.6667 645.5 39.75 645.5H39.5V644.5H37.5V643.5H36.5V642.5H34.5V641.5H33.5V640.5H32.5V639.5H30.5V638.5H29.5V637.5H28.5V636.5H27.5V635.5H26.5V634.5H25.5V633.5H24.5V632.5H23.5V630.5H22.5V629.5H21.5V628.5H20.5V626.5H19.5V625.5H18.5V623.5H17.5V622.5H16.5V620.5H15.5V618.5H14.5V616.5H13.5V614.5H12.5V612.5H11.5V610.5H10.5V610.25V607.75V607.5H9.5V607.25V604.75V604.5H8.5V604.25V601.75V601.5H7.5V601.25V598.75V598.5H6.5V598.25V594.75V594.5H5.5V594.25V590.75V590.5H4.5V590.25V585.75V585.5H3.5V585.25V580.75V580.5H2.5V580.25V572.75V572.5H1.5V572.25V557.75V557.5H0.5V557.25V546.75V546.5H1.5V546.25V530.75V530.5H2.5V530.25V524.75V524.5H3.5V524.25V517.75V517.5H4.5V517.25V512.75V512.5H5.5V512.25V508.75V508.5H6.5V508.25V504.75V504.5H7.5V504.25V500.75V500.5H8.5V500.25V497.75V497.5H9.5V497.25V494.75V494.5H10.5V494.25V491.75V491.5H11.5V491.25V488.75V488.5H12.5V488.25V485.75V485.5H13.5V485.25V482.75V482.5H14.5V480.5H15.5V478.5H16.5V476.5H17.5V474.5H18.5V472.5H19.5V470.5H20.5V468.5H21.5V466.5H22.5C22.5 466.25 22.5 465.667 22.5 464.75V464.5H23.5V462.5H24.5V461.5H25.5V459.5H26.5V458.5H27.5C27.5 458.25 27.5 457.667 27.5 456.75V456.5H28.5V454.5H29.5V453.5H30.5V452.5H31.5V450.5H32.5V449.5H33.5V447.5H34.5V446.5H35.5V445.5H36.5V444.5H37.5V442.5H38.5V441.5H39.5V440.5H40.5V439.5H41.5V438.5H42.5V437.5H43.5V436.5H44.5V435.5H45.5V434.5H46.5V433.5H47.5V432.5H48.5V431.5H49.5V430.5H50.5V429.5H51.5V428.5H52.5V427.5H53.5V426.5H55.5V425.5H56.5V424.5H57.5V423.5H58.5V422.5H60.5V421.5H61.5V420.5H63.5V419.5H64.5V418.5H66.5V417.5H67.5V416.5C67.75 416.5 68.3333 416.5 69.25 416.5H69.5V415.5H71.5V414.5H72.5V413.5H74.5V412.5H74.75H77.25H77.5V411.5H78.5V410.5H78.75H81.25H81.5V409.5H83.5V408.5H83.75H86.25H86.5V407.5H86.75H89.25H89.5V406.5H89.75H92.25H92.5V405.5H92.75H96.25H96.5V404.5H96.75H100.25H100.5V403.5H100.75H107.25H107.5V402.5H107.75H135.25H135.5V401.5H135.75H139.25H139.5V400.5H141.5V399.5H142.5V398.5H143.5V397.5H144.5V396.5H145.5V396.25V393.75V393.5H146.5V393.25V388.75V388.5H147.5V388.25V380.75V380.5H148.5V380.25V348.75V348.5H147.5V348.25V327.75V327.5H146.5V327.25V311.75V311.5H145.5V311.25V300.75V300.5H144.5V300.25V291.75V291.5H143.5V291.25V283.75V283.5H142.5V283.25V271.75V271.5H141.5V271.25V259.75V259.5H140.5V259.25V250.75V250.5H139.5V250.25V242.75V242.5H138.5V242.25V232.75V232.5H137.5V232.25V223.75V223.5H136.5V223.25V214.75V214.5H135.5V214.25V207.75V207.5H134.5V207.25V200.75V200.5H133.5V200.25V194.75V194.5H132.5V194.25V189.75V189.5H131.5V189.25V182.75V182.5H130.5V182.25V176.75V176.5H129.5V176.25V168.75V168.5H128.5V168.25V159.75V159.5H127.5V159.25V150.75V150.5H126.5V150.25V141.75V141.5H125.5V141.25V130.75V130.5H124.5V130.25V119.75V119.5H123.5V119.25V103.75V103.5H122.5V103.25V83.75V83.5H121.5V83.25V73.75V73.5H122.5V73.25V56.75V56.5H123.5V56.25V47.75V47.5H124.5V47.25V41.75V41.5H125.5V41.25V37.75V37.5H126.5V37.25V32.75V32.5H127.5V30.5H128.5V30.25V27.75V27.5H129.5V25.5H130.5V24.5H131.5V22.5H132.5V21.5H133.5V19.5H134.5V18.5H135.5V17.5H136.5V16.5H138.5V15.5H139.5V14.5H141.5V13.5H143.5V12.5H145.5V11.5H145.75H149.25H149.5V10.5H149.75H160.25H160.5V11.5H160.75H164.25H164.5V12.5H166.5V13.5H168.5V14.5C168.75 14.5 169.333 14.5 170.25 14.5H170.5V15.5H172.5V16.5H173.5V17.5H174.5V18.5H175.5V19.5H176.5V20.5H177.5V21.5H178.5V23.5H179.5V24.5H180.5V26.5H181.5V28.5H182.5V30.5H183.5V30.75V33.25V33.5H184.5V33.75V36.25V36.5H185.5V36.75V40.25V40.5H186.5V40.75V44.25V44.5H187.5V44.75V48.25V48.5H188.5V48.75V54.25V54.5H189.5V54.75V64.25V64.5H190.5V64.75V117.25V117.5H191.5V117.75V131.25V131.5H192.5V131.75V144.25V144.5H193.5V144.75V158.25V158.5H194.5V158.75V186.25V186.5H195.5V186.75V214.25V214.5H196.5V214.75V233.25V233.5H197.5V233.75V250.25V250.5H198.5V250.75V265.25V265.5H199.5V265.75V278.25V278.5H200.5V278.75V291.25V291.5H201.5V291.75V307.25V307.5H202.5V307.75V329.25V329.5H203.5V329.75V349.25V349.5H204.5V349.75V369.25V369.5H205.5V369.75V394.25V394.5H206.5V394.75V409.25V409.5H207.5V411.5H208.5V412.5H210.5V413.5H210.75H213.25H213.5V414.5H213.75H219.25H219.5V415.5H219.75H229.25H229.5V416.5H229.75H242.25H242.5V417.5H242.75H253.25H253.5V416.5C253.75 416.5 254.333 416.5 255.25 416.5H255.5V415.5H257.5V413.5H258.5V411.5H259.5V411.25V406.75V406.5H260.5V406.25V398.75V398.5H261.5V398.25V392.75V392.5H262.5V392.25V386.75V386.5H263.5V386.25V381.75V381.5H264.5V381.25V376.75V376.5H265.5V376.25V371.75V371.5H266.5V371.25V367.75V367.5H267.5V367.25V363.75V363.5H268.5V363.25V360.75V360.5H269.5V360.25V357.75V357.5H270.5V357.25V354.75V354.5H271.5V354.25V351.75V351.5H272.5V349.5H273.5V348.5H274.5V346.5H275.5V345.5H276.5V344.5H277.5V343.5H278.5V342.5H279.5V341.5H280.5V340.5H282.5V339.5H284.5V338.5H284.75H288.25H288.5V337.5H288.75H298.25H298.5V338.5H298.75H302.25H302.5V339.5H302.75H305.25H305.5V340.5H306.5V341.5H308.5V342.5H309.5V343.5H310.5V345.5H311.5V346.5H312.5V348.5H313.5V350.5H314.5V350.75V355.25V355.5H315.5V355.75V368.25V368.5H314.5V368.75V378.25V378.5H313.5V378.75V385.25V385.5H312.5V385.75V390.25V390.5H311.5V390.75V395.25V395.5H310.5V395.75V399.25V399.5H309.5V399.75V405.25V405.5H308.5V405.75V414.25V414.5H307.5V414.75V424.25V424.5H306.5V424.75V436.25V436.5H305.5V436.75V453.25V453.5H306.5V453.75V462.25V462.5H307.5V462.75V466.25V466.5H308.5V466.75V469.25V469.5H309.5V471.5H310.5V472.5H311.5V473.5H311.75H314.25H314.5V474.5H315.5V473.5H315.75H318.25H318.5V472.5H320.5V471.5H321.5V470.5H322.5V469.5H323.5V468.5H324.5V467.5H325.5V466.5H326.5V465.5H327.5V463.5H328.5V462.5H329.5V461.5H330.5V460.5H331.5V458.5H332.5V457.5H333.5V455.5H334.5V454.5H335.5V453.5H336.5V451.5H337.5V450.5H338.5V448.5H339.5V447.5H340.5V445.5H341.5V444.5H342.5V442.5H343.5V441.5H344.5V439.5H345.5V438.5H346.5C346.5 438.25 346.5 437.667 346.5 436.75V436.5H347.5V434.5H348.5V433.5H349.5V431.5H350.5V429.5H351.5V427.5H352.5V425.5H353.5V425.25V422.75V422.5H354.5V422.25V415.75V415.5H355.5V415.25V410.75V410.5H356.5V410.25V405.75V405.5H357.5V405.25V401.75V401.5H358.5V401.25V397.75V397.5H359.5V397.25V394.75V394.5H360.5V394.25V391.75V391.5H361.5V391.25V388.75V388.5H362.5V388.25V385.75V385.5H363.5V385.25V382.75V382.5H364.5V380.5H365.5V380.25V377.75V377.5H366.5V375.5H367.5V373.5H368.5V371.5H369.5V369.5H370.5V367.5H371.5V365.5H372.5C372.5 365.25 372.5 364.667 372.5 363.75V363.5H373.5V361.5H374.5V360.5H375.5V358.5H376.5V357.5H377.5C377.5 357.25 377.5 356.667 377.5 355.75V355.5H378.5V353.5H379.5V352.5H380.5V351.5H381.5V349.5H382.5V348.5H383.5V347.5H384.5V345.5H385.5V344.5H386.5V343.5H387.5V342.5H388.5V341.5H389.5V340.5H390.5V339.5H391.5V338.5H392.5V337.5H393.5V336.5H394.5V335.5H395.5V334.5H396.5V333.5H398.5V332.5H399.5V331.5H400.5V330.5H402.5V329.5H403.5V328.5H405.5V327.5H406.5V326.5H408.5V325.5H410.5V324.5H412.5V323.5H414.5V322.5H414.75H417.25H417.5V321.5H417.75H420.25H420.5V320.5H420.75H425.25H425.5V319.5H425.75H445.25H445.5V320.5H445.75H450.25H450.5V321.5H450.75H453.25H453.5V322.5H453.75H456.25H456.5V323.5H458.5V324.5C458.75 324.5 459.333 324.5 460.25 324.5H460.5V325.5H462.5V326.5H463.5V327.5H465.5V328.5H466.5V329.5H467.5V330.5H468.5V331.5H469.5V332.5H470.5V333.5H471.5V335.5H472.5V336.5H473.5V338.5H474.5V338.75V342.25V342.5H475.5V342.75V348.25V348.5H474.5V348.75V352.25V352.5H473.5V352.75V355.25V355.5H472.5V356.5H471.5V358.5H470.5V359.5H469.5V360.5H469.25H464.75H464.5V359.5H463.5V358.5H462.5V356.5H461.5V354.5H460.5V352.5H459.5V351.5H457.5V350.5H455.5V349.5H455.25H449.75H449.5V350.5H449.25H446.75H446.5V351.5C446.25 351.5 445.667 351.5 444.75 351.5H444.5V352.5H442.5V353.5H441.5V354.5H440.5V355.5H439.5V356.5H438.5V357.5H437.5V358.5H436.5V359.5H435.5V360.5H434.5V361.5H433.5V362.5H432.5V363.5H431.5V364.5H430.5V365.5H429.5V366.5H428.5V368.5H427.5V369.5H426.5V370.5H425.5V371.5H424.5V373.5H423.5V374.5H422.5V375.5H421.5V377.5H420.5V378.5H419.5V380.5H418.5V381.5H417.5V383.5H416.5V384.5H415.5V386.5H414.5V388.5H413.5V390.5H412.5V392.5H411.5V394.5H410.5V394.75V397.25V397.5H409.5V399.5H408.5V399.75V402.25V402.5H407.5V402.75V405.25V405.5H406.5V405.75V408.25V408.5H405.5V408.75V411.25V411.5H404.5V411.75V415.25V415.5H403.5V415.75V421.25V421.5H402.5V421.75V427.25V427.5H401.5V427.75V443.25V443.5H400.5V443.75V447.25V447.5H401.5V447.75V461.25V461.5H402.5V461.75V468.25V468.5H403.5V468.75V473.25V473.5H404.5V473.75V476.25V476.5H405.5V476.75V479.25V479.5H406.5V481.5H407.5V483.5H408.5C408.5 483.75 408.5 484.333 408.5 485.25V485.5H409.5V487.5H410.5V488.5H411.5V490.5H412.5V491.5H414.5V492.5H415.5V493.5H417.5V494.5H417.75H421.25H421.5V495.5H421.75H426.25H426.5V494.5H426.75H430.25H430.5V493.5H430.75H433.25H433.5V492.5H433.75H436.25H436.5V491.5H438.5V490.5H439.5V489.5C439.75 489.5 440.333 489.5 441.25 489.5H441.5V488.5H443.5V487.5H444.5V486.5H446.5V485.5H447.5V484.5H448.5V483.5H450.5V482.5H451.5V481.5H452.5V480.5H453.5V479.5H454.5V478.5H455.5V477.5H457.5V476.5H458.5V475.5H459.5V474.5H460.5V473.5H461.5V472.5H462.5V471.5H463.5V470.5H464.5V469.5H465.5V468.5H466.5V467.5H467.5V466.5H468.5V465.5H469.5V464.5H470.5V463.5H471.5V462.5H472.5V461.5H473.5V460.5H474.5V459.5H475.5V458.5H476.5V457.5H477.5V456.5H478.5V454.5H479.5V453.5H480.5V452.5H481.5V451.5H482.5V450.5H483.5V449.5H484.5V448.5H485.5V447.5H486.5V445.5H487.5V444.5H488.5V443.5H489.5V442.5H490.5V441.5H491.5V440.5H492.5V438.5H493.5V437.5H494.5V436.5H495.5V435.5H496.5V434.5H497.5V433.5H498.5V431.5H499.5V430.5H500.5V429.5H501.5V428.5H502.5V426.5H503.5V425.5H504.5V424.5H505.5V423.5H506.5V421.5H507.5V420.5H508.5V419.5H509.5V417.5H510.5V416.5H511.5V415.5H512.5V414.5H513.5V412.5H514.5V411.5H515.5V410.5H516.5V408.5H517.5V407.5H518.5V405.5H519.5V404.5H520.5V402.5H521.5V400.5H522.5V398.5H523.5V396.5H524.5V396.25V393.75V393.5H525.5V393.25V390.75V390.5H526.5V390.25V385.75V385.5H527.5V385.25V380.75V380.5H528.5V380.25V371.75V371.5H529.5V371.25V359.75V359.5H530.5V359.25V346.75V346.5H531.5V346.25V335.75V335.5H532.5V335.25V324.75V324.5H533.5V324.25V316.75V316.5H534.5V316.25V307.75V307.5H535.5V307.25V299.75V299.5H536.5V299.25V291.75V291.5H537.5V291.25V285.75V285.5H538.5V285.25V278.75V278.5H539.5V278.25V272.75V272.5H540.5V272.25V266.75V266.5H541.5V266.25V261.75V261.5H542.5V261.25V255.75V255.5H543.5V255.25V251.75V251.5H544.5V251.25V246.75V246.5H545.5V246.25V242.75V242.5H546.5V242.25V237.75V237.5H547.5V237.25V233.75V233.5H548.5V233.25V229.75V229.5H549.5V229.25V225.75V225.5H550.5V225.25V221.75V221.5H551.5V221.25V217.75V217.5H552.5V217.25V213.75V213.5H553.5V213.25V209.75V209.5H554.5V209.25V206.75V206.5H555.5V206.25V203.75V203.5H556.5V203.25V199.75V199.5H557.5V199.25V196.75V196.5H558.5V196.25V192.75V192.5H559.5V192.25V189.75V189.5H560.5V189.25V186.75V186.5H561.5V186.25V183.75V183.5H562.5V183.25V180.75V180.5H563.5V180.25V177.75V177.5H564.5V177.25V174.75V174.5H565.5V174.25V171.75V171.5H566.5V171.25V168.75V168.5H567.5V168.25V165.75V165.5H568.5V165.25V162.75V162.5H569.5V160.5H570.5V160.25V157.75V157.5H571.5V157.25V154.75V154.5H572.5V154.25V151.75V151.5H573.5V151.25V148.75V148.5H574.5V146.5H575.5V146.25V143.75V143.5H576.5V141.5H577.5V139.5H578.5V139.25V136.75V136.5H579.5V134.5H580.5V132.5H581.5V130.5H582.5V128.5H583.5V128.25V125.75V125.5H584.5V123.5H585.5V121.5H586.5V119.5H587.5V119.25V116.75V116.5H588.5V114.5H589.5V112.5H590.5V112.25V109.75V109.5H591.5V107.5H592.5V105.5H593.5V103.5H594.5V101.5H595.5V99.5H596.5V97.5H597.5V95.5H598.5C598.5 95.25 598.5 94.6667 598.5 93.75V93.5H599.5V91.5H600.5V90.5H601.5V88.5H602.5V86.5H603.5V84.5H604.5V82.5H605.5C605.5 82.25 605.5 81.6667 605.5 80.75V80.5H606.5V78.5H607.5V77.5H608.5V75.5H609.5V73.5H610.5V72.5H611.5C611.5 72.25 611.5 71.6667 611.5 70.75V70.5H612.5V68.5H613.5V67.5H614.5V65.5H615.5V64.5H616.5V62.5H617.5V61.5H618.5V59.5H619.5V58.5H620.5V56.5H621.5V55.5H622.5V53.5H623.5V52.5H624.5V50.5H625.5V49.5H626.5V47.5H627.5V46.5H628.5V45.5H629.5V43.5H630.5V42.5H631.5V41.5H632.5V40.5H633.5V38.5H634.5V37.5H635.5V36.5H636.5V34.5H637.5V33.5H638.5V32.5H639.5V31.5H640.5V30.5H641.5V28.5H642.5V27.5H643.5V26.5H644.5V25.5H645.5V24.5H646.5V23.5H647.5V22.5H648.5V21.5H649.5V20.5H650.5V19.5H651.5V18.5H652.5V17.5H653.5V16.5H654.5V15.5H655.5V14.5H657.5V13.5H658.5V12.5H659.5V11.5H661.5V10.5H662.5V9.5H663.5V8.5H665.5V7.5H667.5V6.5H669.5V5.5H671.5V4.5H673.5V3.5H673.75H676.25H676.5V2.5H676.75H679.25H679.5V1.5H679.75H684.25H684.5V0.5ZM692.5 27.5V28.5H690H689.5V29.5H687.5V30.5H685.5V31.5H684.5V32.5H683.5V33.5H681.5V34.5H680.5V35.5H679.5V36.5H678.5V37.5H677.5V38.5H676.5V40.5H675.5V41.5H674.5V42.5H673.5V43.5H672.5V44.5H671.5V46.5H670.5V47.5H669.5V49.5H668.5V51.5H667.5V52.5H666.5V54.5H665.5V55C665.5 55.6667 665.5 56.1667 665.5 56.5H664.5V57.5H663.5V59.5H662.5V60C662.5 60.6667 662.5 61.1667 662.5 61.5H661.5V63.5H660.5V65.5H659.5V66.5H658.5V68.5H657.5V69C657.5 69.6667 657.5 70.1667 657.5 70.5H656.5V72.5H655.5V73V75.5H654.5V77.5H653.5V79.5H652.5V81.5H651.5V83.5H650.5V84V86.5H649.5V88.5H648.5V90.5H647.5V92.5H646.5V94.5H645.5V96.5H644.5V97V99.5H643.5V101.5H642.5V103.5H641.5V105.5H640.5V106V108.5H639.5V110.5H638.5V112.5H637.5V113V115.5H636.5V117.5H635.5V119.5H634.5V120V122.5H633.5V124.5H632.5V125V127.5H631.5V129.5H630.5V130V132.5H629.5V133V135.5H628.5V136V138.5H627.5V139V141.5H626.5V142V144.5H625.5V145V147.5H624.5V149.5H623.5V150V152.5H622.5V153V155.5H621.5V156V158.5H620.5V159V161.5H619.5V162V164.5H618.5V165V168.5H617.5V170.5H616.5V171V173.5H615.5V174V176.5H614.5V177V179.5H613.5V180V182.5H612.5V183V186.5H611.5V187V189.5H610.5V190V192.5H609.5V193V195.5H608.5V196V199.5H607.5V200V202.5H606.5V203V206.5H605.5V207V210.5H604.5V211V214.5H603.5V215V218.5H602.5V219V222.5H601.5V223V226.5H600.5V227V230.5H599.5V231V234.5H598.5V235V238.5H597.5V239V243.5H596.5V244V248.5H595.5V249V253.5H594.5V254V259.5H593.5V260V264.5H592.5V265V276.5H593H596.5V275.5H598.5V274.5H599.5V273.5H600.5V272.5H601.5V271.5H602.5V270.5H603.5V269.5H604.5V268.5H605.5V266.5H606.5V265.5H607.5V264.5H608.5V263.5H609.5V262.5H610.5V261.5H611.5V259.5H612.5V258.5H613.5V257.5H614.5V255.5H615.5V254.5H616.5V253.5H617.5V252.5H618.5V250.5H619.5V249.5H620.5V248.5H621.5V246.5H622.5V245.5H623.5V243.5H624.5V242.5H625.5V241.5H626.5V239.5H627.5V238.5H628.5V236.5H629.5V235.5H630.5V233.5H631.5V232.5H632.5V231.5H633.5V229.5H634.5V228.5H635.5V226.5H636.5V225.5H637.5V223.5H638.5V222.5H639.5V220.5H640.5V219.5H641.5V217.5H642.5V216.5H643.5V214.5H644.5C644.5 213.5 644.5 212.833 644.5 212.5H645.5V211.5H646.5V209.5H647.5V208.5H648.5V206.5H649.5V205.5H650.5V203.5H651.5C651.5 202.5 651.5 201.833 651.5 201.5H652.5V200.5H653.5V198.5H654.5V197.5H655.5V195.5H656.5C656.5 194.5 656.5 193.833 656.5 193.5H657.5V192.5H658.5V190.5H659.5V188.5H660.5V187.5H661.5V185.5H662.5C662.5 184.5 662.5 183.833 662.5 183.5H663.5V182.5H664.5V180.5H665.5C665.5 179.5 665.5 178.833 665.5 178.5H666.5V176.5H667.5V175.5H668.5V173.5H669.5C669.5 172.5 669.5 171.833 669.5 171.5H670.5V169.5H671.5V168.5H672.5V166.5H673.5C673.5 165.5 673.5 164.833 673.5 164.5H674.5V162.5H675.5V160.5H676.5V158.5H677.5V156.5H678.5V155.5H679.5V153.5H680.5C680.5 152.5 680.5 151.833 680.5 151.5H681.5V149.5H682.5V147.5H683.5V145V144.5H684.5V142.5H685.5V140.5H686.5V138.5H687.5V136.5H688.5V134.5H689.5V132.5H690.5V130V129.5H691.5V127.5H692.5V125.5H693.5V123V122.5H694.5V120.5H695.5V118V117.5H696.5V115.5H697.5V113V112.5H698.5V110.5H699.5V108V107.5H700.5V105.5H701.5V102V101.5H702.5V99V98.5H703.5V96V95.5H704.5V93V92.5H705.5V90V89.5H706.5V87V86.5H707.5V83V82.5H708.5V79V78.5H709.5V75V74.5H710.5V68V67.5H711.5V56V55.5H712.5V53.5H711.5V44V43.5H710.5V40V39.5H709.5V37.5H708.5V35.5H707.5V33.5H706.5V32.5H705.5V31.5H704.5V30.5H703.5V29.5H701.5V28.5H699H698.5V27.5H693H692.5ZM835.5 336.5V337.5H832H831.5V338.5H829H828.5V339.5H826.5V340.5H824.5V341.5H822.5V342.5H821.5V343.5H819.5V344.5H818.5V345.5H817.5V346.5H816.5V347.5H815.5V348.5H814.5V349.5H812.5V350.5H811.5V352.5H810.5V353.5H809.5V354.5H808.5V355.5H807.5V356.5H806.5V358.5H805.5V359.5H804.5V360.5H803.5V362.5H802.5V363.5H801.5V365.5H800.5V366.5H799.5V368.5H798.5V369C798.5 369.667 798.5 370.167 798.5 370.5H797.5V371.5H796.5V373.5H795.5V374C795.5 374.667 795.5 375.167 795.5 375.5H794.5V377.5H793.5V379.5H792.5V381.5H791.5V383.5H790.5V385.5H789.5V387.5H788.5V389.5H787.5V391.5H786.5V392V394.5H785.5V396.5H784.5V397V399.5H783.5V400V402.5H782.5V403V405.5H781.5V406V409.5H780.5V410V413.5H779.5V414V419.5H778.5V420V426.5H779.5V427V429.5H780.5V430.5H781H786.5V429.5H788.5V428.5H789.5V427.5H791.5V426.5H792.5V425.5H794.5V424.5H795.5V423.5H796.5V422.5H797.5V421.5H799.5V420.5H800.5V419.5H801.5V418.5H802.5V417.5H803.5V416.5H804.5V415.5H805.5V414.5H806.5V413.5H807.5V412.5H808.5V411.5H809.5V410.5H810.5V409.5H811.5V408.5H812.5V407.5H813.5V406.5H814.5V405.5H815.5V404.5H816.5V403.5H817.5V402.5H818.5V401.5H819.5V400.5H820.5V399.5H821.5V398.5H822.5V397.5H823.5V396.5H824.5V395.5H825.5V394.5H826.5V393.5H827.5V392.5H828.5V391.5H829.5V389.5H830.5V388.5H831.5V387.5H832.5V386.5H833.5V385.5H834.5V384.5H835.5V383.5H836.5V381.5H837.5V380.5H838.5V379.5H839.5V378.5H840.5V377.5H841.5V375.5H842.5V374.5H843.5V373.5H844.5V371.5H845.5V370.5H846.5V369.5H847.5V367.5H848.5C848.5 366.5 848.5 365.833 848.5 365.5H849.5V363.5H850.5V361.5H851.5V359V358.5H852.5V355V354.5H853.5V346V345.5H852.5V343.5H851.5V341.5H850.5V340.5H849.5V339.5H848.5V338.5H846H845.5V337.5H843H842.5V336.5H836H835.5ZM128.5 424.5V425.5H124H123.5V426.5H120H119.5V427.5H117H116.5V428.5H114H113.5V429.5H111.5V430.5H109.5V431.5H107H106.5V432.5H104.5V433.5H102.5V434.5H101.5V435.5H99.5V436.5H98.5V437.5H96.5V438.5H95.5V439.5H93.5V440.5H92.5V441.5H91.5V442.5H89.5V443.5H88.5V444.5H87.5V445.5H86.5V446.5H85.5V447.5H84.5V448.5H83.5V449.5H82.5V450.5H81.5V451.5H80.5V452.5H79.5V453.5H78.5V454.5H77.5V455.5H76.5V456.5H75.5V457.5H74.5V459.5H73.5V460.5H72.5V461.5H71.5V462.5H70.5V464.5H69.5V465.5H68.5V466.5H67.5V468.5H66.5V469C66.5 469.667 66.5 470.167 66.5 470.5H65.5V471.5H64.5V473.5H63.5V474C63.5 474.667 63.5 475.167 63.5 475.5H62.5V477.5H61.5V478.5H60.5V480.5H59.5V481C59.5 481.667 59.5 482.167 59.5 482.5H58.5V483V485.5H57.5V487.5H56.5V489.5H55.5V491.5H54.5V492V494.5H53.5V496.5H52.5V497V499.5H51.5V501.5H50.5V502V504.5H49.5V505V507.5H48.5V508V511.5H47.5V512V515.5H46.5V516V520.5H45.5V521V524.5H44.5V525V530.5H43.5V531V537.5H42.5V538V547.5H41.5V548V574.5H42.5V575V582.5H43.5V583V587.5H44.5V588V590.5H45.5V591V594.5H46.5V596.5H47.5V598.5H48.5V600.5H49.5V601.5H50.5V603.5H51.5V604.5H52.5V605.5H53.5V606.5H54.5V607.5H56.5V608.5H57.5V609.5H58H60.5V610.5H61H69.5V609.5H70H72.5V608.5H74.5V607.5H75.5V606.5H77.5V605.5H78.5V604.5H79.5V603.5H80.5V602.5H81.5V601.5H82.5V600.5H83.5V599.5H84.5V598.5H85.5V597.5H86.5V595.5H87.5V594.5H88.5V593.5H89.5V591.5H90.5V590.5H91.5V588.5H92.5V587.5H93.5V585.5H94.5V584.5H95.5V582.5H96.5C96.5 581.5 96.5 580.833 96.5 580.5H97.5V578.5H98.5V576.5H99.5V574.5H100.5V572.5H101.5V570.5H102.5V568.5H103.5V566.5H104.5V564.5H105.5V562.5H106.5V560.5H107.5V558.5H108.5V556.5H109.5V554V553.5H110.5V551.5H111.5V549V548.5H112.5V546.5H113.5V544V543.5H114.5V541.5H115.5V539.5H116.5V537V536.5H117.5V534V533.5H118.5V531V530.5H119.5V528.5H120.5V526V525.5H121.5V523.5H122.5V521V520.5H123.5V518V517.5H124.5V515V514.5H125.5V512V511.5H126.5V509V508.5H127.5V506.5H128.5V503V502.5H129.5V500V499.5H130.5V497V496.5H131.5V494V493.5H132.5V490V489.5H133.5V487V486.5H134.5V483V482.5H135.5V480V479.5H136.5V476V475.5H137.5V471V470.5H138.5V467V466.5H139.5V462V461.5H140.5V457V456.5H141.5V451V450.5H142.5V442V441.5H143.5V430V429.5H142.5V427.5H141.5V426.5H139.5V425.5H137H136.5V424.5H129H128.5Z" fill="currentColor" stroke="currentColor"/>
<path d="M327.5 218.5H327.75H338.25H338.5V219.5H338.75H341.25H341.5V220.5C341.75 220.5 342.333 220.5 343.25 220.5H343.5V221.5H345.5V222.5H346.5V223.5H347.5V224.5H348.5V225.5H349.5V226.5H350.5V227.5H351.5V228.5H352.5V229.5H353.5V231.5H354.5V231.75V234.25V234.5H355.5V234.75V237.25V237.5H356.5V237.75V248.25V248.5H355.5V248.75V251.25V251.5H354.5V253.5H353.5V255.5H352.5C352.5 255.75 352.5 256.333 352.5 257.25V257.5H351.5V259.5H350.5V260.5H349.5C349.5 260.75 349.5 261.333 349.5 262.25V262.5H348.5V264.5H347.5V265.5H346.5C346.5 265.75 346.5 266.333 346.5 267.25V267.5H345.5V269.5H344.5V270.5H343.5V272.5H342.5V273.5H341.5C341.5 273.75 341.5 274.333 341.5 275.25V275.5H340.5V277.5H339.5V278.5H338.5V280.5H337.5V281.5H336.5V283.5H335.5V284.5H334.5V286.5H333.5V287.5H332.5V289.5H331.5V290.5H330.5V292.5H329.5V293.5H328.5V295.5H327.5V296.5H326.5V297.5H325.5V298.5H324.5V300.5H323.5V301.5H322.5V302.5H321.5V304.5H320.5V305.5H319.5V306.5H318.5V307.5H317.5V308.5H316.5V309.5H315.5V310.5H314.5V311.5H313.5V312.5H312.5V313.5H311.5V314.5H309.5V315.5H308.5V316.5H308.25H305.75H305.5V317.5H305.25H301.75H301.5V318.5H301.25H298.75H298.5V317.5H298.25H294.75H294.5V316.5C294.25 316.5 293.667 316.5 292.75 316.5H292.5V315.5H290.5V314.5H289.5V313.5H288.5V311.5H287.5V309.5H286.5V309.25V306.75V306.5H285.5V306.25V296.75V296.5H286.5V296.25V290.75V290.5H287.5V290.25V286.75V286.5H288.5V286.25V283.75V283.5H289.5V283.25V280.75V280.5H290.5V280.25V277.75V277.5H291.5V275.5H292.5V275.25V272.75V272.5H293.5V270.5H294.5V268.5H295.5V268.25V265.75V265.5H296.5V263.5H297.5V261.5H298.5V261.25V258.75V258.5H299.5V256.5H300.5V254.5H301.5V252.5H302.5V250.5H303.5V248.5H304.5V246.5H305.5V244.5H306.5V242.5H307.5V240.5H308.5V238.5H309.5V236.5H310.5C310.5 236.25 310.5 235.667 310.5 234.75V234.5H311.5V232.5H312.5V231.5H313.5C313.5 231.25 313.5 230.667 313.5 229.75V229.5H314.5V227.5H315.5V226.5H316.5V225.5H317.5V224.5H318.5V223.5H319.5V222.5H320.5V221.5H322.5V220.5H324.5V219.5H324.75H327.25H327.5V218.5Z" fill="currentColor" stroke="currentColor"/>
</svg>
